<svg xmlns="http://www.w3.org/2000/svg" width="254.678" height="412.909" viewBox="0 0 254.678 412.909"><defs><style>.a{fill:#e25649;}.b{fill:#66a80f;}.c{fill:#019ca9;}.d{fill:#4655e3;}.e{fill:#0aa0ad;}.f{fill:#94d82d;}.g{fill:#02dac6;}.h{fill:#fb6a5c;}</style></defs><g transform="translate(-107.37 2011.772)"><path class="a" d="M290.5-1610.815c-1.772-18.309-3.539-36.618-5.423-54.914-1.135-11.022-1.536-22.132-3.84-33.019l0-.02a54.132,54.132,0,0,1-.805,12.919,34.269,34.269,0,0,1-3.967,10.709c-4.346,7.456-8.924,14.835-14.717,21.278-13.68,15.214-22.891,32.456-25.432,52.841-.09.719-.192,1.431-.265,2.158l53.728-.051h1.583C291.074-1602.882,290.88-1606.858,290.5-1610.815Z"/><path class="b" d="M311.884-1947.771c-1.964-3.941-7.115-2.486-10.508-1.377-17.979,5.871-34.643,13.809-44.213,31.553v0a4.681,4.681,0,0,1,.433.633,3.3,3.3,0,0,1-.691-.2,5.2,5.2,0,0,0-.732,3.124c-.092,1.949-.186,3.9-.2,5.843a31.5,31.5,0,0,0,1.443,10.478,3.47,3.47,0,0,1-.711,3.686c-12.459,14.547-17.218,32.431-21.483,50.431a359.884,359.884,0,0,0-7.368,46.194q-.462,4.5-.876,9a28.41,28.41,0,0,1-.722,3.394,361.309,361.309,0,0,0,3.624,43.258q.375-5.772.747-11.544.764-11.815,1.562-23.629a26.538,26.538,0,0,1,.827-3.845h0c-4.454-14.173-.5-27.1,5.857-39.671h0c-1.34-1.6-.943-3.488-.619-5.222,2.436-13.054,4.521-26.191,8.652-38.864.126-.387.235-.777.365-1.162a70.565,70.565,0,0,1,6.292-15.692c2.48-4.748,5.581-8.877,11.418-10.325,15.275-3.788,23.3-14.668,26.72-29.208,1.217-5.185,3.365-9.267,7.357-12.547,2.438-2,5.073-3.808,7.293-6.027C308.774-1941.9,313.854-1943.813,311.884-1947.771Z"/><path class="c" d="M257.6-1916.96a4.681,4.681,0,0,0-.433-.633v0c-.1.143-.173.293-.258.44A3.3,3.3,0,0,0,257.6-1916.96Z"/><path class="b" d="M358.865-1915.808c-1.1.412-2.2.831-3.306,1.249-2.788,1.057-5.575,2.115-8.387,3.1-8.259,2.894-11.367,7.79-10.237,16.388.457,3.465.931,6.927,1.489,10.377A15.072,15.072,0,0,1,334.081-1871a86.263,86.263,0,0,0-7.638,8.56c-3.2,4.3-3.032,9.085-.087,13.463.565.839,1.1,1.7,1.626,2.564.338.553.675,1.107,1.018,1.657,7.889-1.837,13.242-6.613,15.879-14.21a61,61,0,0,0,3.149-16.038c.923-14.16.69-28.6,10.743-40.318.094-.109.067-.321.1-.483Z"/><path class="b" d="M144.73-1946.016c-.913-6.138-4.789-10.464-11.611-12.766a53.944,53.944,0,0,0-8.45-2.087,78.418,78.418,0,0,0-14.574-.9c-2.434.014-4.021.469-1.293,2.806,4.416,3.784,8.942,7.437,14.177,10.055,4.106,2.054,8.278,3.48,12.854,1.161a3.689,3.689,0,0,1,3.307-.032,7.517,7.517,0,0,1,1.748,1.126h0l4.053,3.145h0A19.415,19.415,0,0,0,144.73-1946.016Z"/><path class="d" d="M258.751-1834.147l0,0,0-.009Z"/><path class="e" d="M277.093-1857.672l-.024.012h.028Z"/><path class="e" d="M277.1-1857.661c.047.132.08.253.112.375l-.066-.377,0-.022-.054.013.049.009Z"/><path class="e" d="M258.753-1834.141h0Z"/><path class="e" d="M277.142-1857.663l-.049-.009,0,.011Z"/><path class="e" d="M277.261-1856.994c.007.009.011.017.018.026-.018-.1-.04-.208-.07-.318C277.227-1857.189,277.243-1857.092,277.261-1856.994Z"/><path class="b" d="M278.91-1858.109l-1.763.424,0,.022.066.377c.03.11.052.215.07.318-.007-.009-.011-.017-.018-.026-.018-.1-.034-.195-.052-.292-.032-.122-.065-.243-.112-.375h-.028c-3.09,1.565-6.257,2.995-9.252,4.722-.7.4-1.338.807-1.954,1.215-6.936,4.584-8.888,9.646-7.112,17.572l0,.008h0c.577-1.207.947-2.824,1.583-4.078a2.887,2.887,0,0,1,2.74-1.921c6.506.234,10.31-3.532,14.116-7.452.584-.6,1.169-1.206,1.763-1.8.776-3.347,4.19-5.623,4.235-9.746Z"/><path class="f" d="M260.408-2010.919c-2.584-1.861-5.143-.293-7.426,1.059a84.381,84.381,0,0,0-23.187,19.542c-8.264,10.274-12.421,21.526-8.209,34.851,1.571,4.971-.3,9.2-4.369,12.356-1.836,1.425-3.86,2.61-5.824,3.864-9.6,6.129-11.546,11.619-7.9,22.436,3.611,10.72,10.362,19.322,18.611,26.764,2.329,2.1,2.886,3.907,2.29,6.89-1.338,6.685-2.286,13.45-3.288,20.2-2.094,14.108-3.006,28.343-4.118,42.846-.5-.548-.83-.744-.9-1.008-.377-1.449-.694-2.914-1.023-4.376-3.842-17.085-7.618-34.253-17.7-49.005a17.475,17.475,0,0,1-3.046-12.5c1.368-14.131-2.825-26.759-11.8-37.595-10.137-12.236-21.731-22.943-35.365-31.284q-.636-.3-1.271-.6c-1.061-.5-2.121-1-3.19-1.485-10.463-4.707-21.256-6.62-32.6-3.8a78.418,78.418,0,0,1,14.574.9,53.944,53.944,0,0,1,8.45,2.087c6.822,2.3,10.7,6.628,11.611,12.766a19.415,19.415,0,0,1,.212,2.509h0c-.309,9.557.341,18.953,3.975,27.975,3.345,8.3,7.386,15.922,17.326,17.488a11.2,11.2,0,0,1,9.023,6.979,31.67,31.67,0,0,0,11.992,13.732c5.128,3.334,8.339,7.993,10.83,13.377,8.842,19.116,12.626,39.569,16.066,60.127,3.47,20.736,3.452,41.8,5.93,62.623.774,6.506,1.423,13.06.551,19.673a6.489,6.489,0,0,1-.869-2.237c-3.946-17.034-8.21-33.983-14.5-50.339-5.828-15.147-12.254-29.976-24.433-41.349-1.759-1.643-1.114-3.243-.885-5,1.671-12.818-3.174-22.8-13.386-30.338-8.14-6.01-17.4-9.766-26.978-12.731-5.1-1.577-10.326-2.654-15.737-2.129-1.924.186-3.728.839-4.384,2.758-.644,1.881.787,3.167,2.139,4.137,2.7,1.935,5.464,3.8,8.3,5.537,6.552,4,11.336,8.918,14.005,16.683,4.286,12.479,12.93,21.53,26.573,23.726a20.231,20.231,0,0,1,14.84,9.751,92.742,92.742,0,0,1,6.113,10.869c12.158,26.711,19.114,56.749,25.193,85.274.458.137.873.109,1.333.208.75.162,1.288,1.044,2.042,1.125h12.5c1.4-.13,2.3.2,2.669-1.284l0,0-.005-.005c-1.887-10.419-4.355-24.3-5.281-34.873a361.309,361.309,0,0,1-3.624-43.258c-1.439-32.348.069-64.481,6.772-96.265a13.559,13.559,0,0,1,5.176-8.641c8.223-6.316,13.838-14.692,17.964-24.119a5.2,5.2,0,0,1,.732-3.124c.085-.147.159-.3.258-.44,1.636-7.053,2.355-14.264.833-21.313-4.727-21.9-2.724-43.365,3.273-64.675C261.991-2006.151,263.119-2008.965,260.408-2010.919Z"/><path class="g" d="M250.982-1707.827l.013-.067h-.08C250.937-1707.871,250.96-1707.85,250.982-1707.827Z"/><path class="g" d="M249.76-1707.894c0,.009.006.018.009.026a8.134,8.134,0,0,1,1.213.041c-.022-.023-.045-.044-.067-.067Z"/><path class="f" d="M361.37-1924.856c-1.551-2.479-4.437-1.915-6.89-1.813a54.744,54.744,0,0,0-20.2,5.233c-9.52,4.29-18.6,9.692-23.072,19.663-4.262,9.5-9.96,17.612-18.138,24h0c-5.24,2.945-10.62,5.713-13.89,11.12l-.51,2.246q-.762,3.36-1.526,6.719l1.763-.424,4.28-1.032c-.045,4.123-3.459,6.4-4.235,9.746,1.513,5.994,3.082,11.993-1.222,17.461-.134.17-.256.342-.4.511.054.24.1.48.144.722h0c-7.013,15.1-11.585,31.051-16.061,46.995-6.7,23.864-11.991,48.066-16.338,72.475-.105.592-.218,1.184-.322,1.777l0,0-.758,3.879a3.3,3.3,0,0,0,2.323,1.556H249l1.915-3.879h.08c2.243-11.7,4.339-23.432,6.761-35.1a548.707,548.707,0,0,1,22.462-78.376c1.551-3.306,3.3-6.537,4.6-9.939,1.149-3.006,2.929-4.27,6.2-4.683,4.743-.6,9.613-.767,14.174-2.5h0A79.961,79.961,0,0,0,329-1844.76c-.343-.55-.68-1.1-1.018-1.657-.528-.863-1.061-1.725-1.626-2.564-2.945-4.378-3.111-9.166.087-13.463a86.263,86.263,0,0,1,7.638-8.56,15.072,15.072,0,0,0,4.343-13.691c-.558-3.45-1.032-6.912-1.489-10.377-1.13-8.6,1.978-13.494,10.237-16.388,2.812-.984,5.6-2.042,8.387-3.1,1.1-.418,2.2-.837,3.306-1.249h0a14.205,14.205,0,0,0,1.183-1.6C361.323-1919.752,363.008-1922.237,361.37-1924.856Z"/><path class="f" d="M261.8-1851.247c-9.8,7.207-16.176,17.037-21.415,27.682q-.764,1.554-1.5,3.124l0,0c-6.354,12.57-10.311,25.5-5.857,39.671h0a20.614,20.614,0,0,1,1.745,3.178c2.568,5.808,1.911,11.871.064,18.1-1.2,4.033-.761,8.268-.85,12.422-.256,12.043,1.38,23.917,3.143,35.778.1.655.719,4.582.817,5.237,1.9,1.81,3.322,1.85,3.935-1.072-.1-.59-.71-4.453-.8-5.044-2.13-13.366-3.536-26.783-2.978-40.36.285-6.923,1.434-13.488,5.953-19.11,3.1-3.857,4.5-8.476,5.027-13.336.329-3.012,1.529-5.678,4.119-7.044,8.305-4.378,9.974-11.821,9.934-20.2-.009-2.159.036-4.318.057-6.477-1.177-5.234-2.259-10.494-4.429-15.443h0v0l0-.005v0c-1.776-7.926.176-12.988,7.112-17.572.616-.408,1.258-.813,1.954-1.215,3-1.727,6.162-3.157,9.252-4.722C271.146-1857.515,266.321-1854.572,261.8-1851.247Z"/><path class="h" d="M281.23-1698.768l0,.02,0-.02c-.021-9.028-.021-9.026-9.033-9.034q-10.608-.009-21.216-.025a8.134,8.134,0,0,0-1.213-.041,13.657,13.657,0,0,1-2.693-.026H231.852a4.323,4.323,0,0,1-.5.024c-3.817-.07-7.659.386-11.461-.024H193.365c-4.236.041-6.2,1.093-6.656,5.757-3.366,34.431-7,68.837-10.556,103.25h1.2l58.687.023c.073-.727.175-1.439.265-2.158,2.541-20.385,11.752-37.627,25.432-52.841,5.793-6.443,10.371-13.822,14.717-21.278a34.269,34.269,0,0,0,3.967-10.709A54.132,54.132,0,0,0,281.23-1698.768Z"/></g></svg>