<svg xmlns="http://www.w3.org/2000/svg" xmlns:xlink="http://www.w3.org/1999/xlink" width="344" height="80" viewBox="0 0 344 80"><defs><style>.a{fill:#fff;stroke:#707070;}.b{clip-path:url(#a);}.c{fill:#ffec73;}</style><clipPath id="a"><rect class="a" width="344" height="80" transform="translate(0 3818)"/></clipPath></defs><g class="b" transform="translate(0 -3818)"><path class="c" d="M567.177,231c-21.342,0-21.342,18.674-42.685,18.674S503.15,231,481.807,231s-21.341,18.674-42.683,18.674S417.783,231,396.443,231s-21.34,18.674-42.68,18.674S332.422,231,311.082,231s-21.341,18.674-42.682,18.674S247.06,231,225.72,231s-21.341,18.674-42.681,18.674S161.7,231,140.358,231s-21.339,18.674-42.678,18.674S76.34,231,55,231V378.527H567.177Z" transform="translate(-54.977 3587.001)"/></g></svg>