<svg xmlns="http://www.w3.org/2000/svg" width="895.694" height="485.093" viewBox="0 0 895.694 485.093">
  <defs>
    <style>
      .cls-1 {
        fill: #fff;
      }

      .cls-2 {
        fill: none;
      }

      .cls-3 {
        fill: #585eea;
      }

      .cls-4 {
        fill: #f9bda3;
      }

      .cls-5 {
        fill: #fb6a5c;
      }

      .cls-6 {
        fill: #fcfcfd;
      }

      .cls-7 {
        fill: #fbba58;
      }

      .cls-8 {
        fill: #6e87e3;
      }

      .cls-9 {
        fill: #9965d6;
      }

      .cls-10 {
        fill: #502408;
      }

      .cls-11 {
        fill: #e25649;
      }

      .cls-12 {
        fill: #5159e7;
      }

      .cls-13 {
        fill: #a3d4d3;
      }

      .cls-14 {
        fill: #ffd642;
      }

      .cls-15 {
        fill: #9a65d7;
      }

      .cls-16 {
        fill: #ff8769;
      }

      .cls-17 {
        fill: #9e311b;
      }

      .cls-18 {
        fill: #c56455;
      }

      .cls-19 {
        fill: #e3f9f9;
      }
    </style>
  </defs>
  <g id="그룹_84" data-name="그룹 84" transform="translate(1127.089 1237.292)">
    <path id="패스_2" data-name="패스 2" class="cls-1" d="M-1067.929-1138.288c18.2-.138,36.408-6.292,54.615-6.533,4.557-.063,9.274.873,13.615-1.43,5.585-7.514,5.764-15.432,1.931-23.755-3.784-8.212-11-7.584-18.143-7.3-1.077.045-2.165-.1-3.25-.16l-16.995,4.379q-2.424,1.025-4.851,2.046l-11.365,2.429-2.3-.122v0a88.413,88.413,0,0,1-11.51,1.367c-11.532.665-23.124-.409-34.663.13l-1.816.094c-2.526.4-4.792-2.437-6.307-.249a26.907,26.907,0,0,1,3.082,11.108,20.18,20.18,0,0,1-3.5,11.822c-4.612,6.414,14.648.349,21.913,1.437,3.725-1.07,9.953,5.114,13.671,1.151Z" transform="translate(46.136 162.363)"/>
    <path id="패스_3" data-name="패스 3" class="cls-2" d="M-992.16-1173.658q-4.858,3.977-9.6,8.111C-998.6-1168.31-995.4-1171-992.16-1173.658Z" transform="translate(340.154 172.704)"/>
    <path id="패스_4" data-name="패스 4" class="cls-2" d="M-1030.516-1137.291l-.011-.29Z" transform="translate(262.072 270.618)"/>
    <path id="패스_5" data-name="패스 5" class="cls-2" d="M-1030.516-1137.332l-.007-.13Z" transform="translate(262.083 270.941)"/>
    <path id="패스_6" data-name="패스 6" class="cls-2" d="M-953.367-1190.957a22.865,22.865,0,0,1-10.425-6.392,22.865,22.865,0,0,0,10.425,6.392c9.552,4.669,18.756,2.5,27.673-.783C-934.611-1188.458-943.818-1186.288-953.367-1190.957Z" transform="translate(443.192 108.406)"/>
    <path id="패스_7" data-name="패스 7" class="cls-2" d="M-892.625-1178.558c-9.155-9.642-16.787-20.487-24.683-31.124,7.9,10.637,15.528,21.482,24.683,31.127" transform="translate(569.351 74.934)"/>
    <path id="패스_8" data-name="패스 8" class="cls-2" d="M-1085.6-1156.136q51.777-14.618,103.566-29.192-51.811,14.5-103.57,29.192c1.085.06,2.173.2,3.25.16C-1083.434-1155.931-1084.522-1156.076-1085.6-1156.136Z" transform="translate(112.583 141.031)"/>
    <path id="패스_9" data-name="패스 9" class="cls-2" d="M-1078.333-1176.289l-4.851,2.046-11.365,2.429,11.365-2.429Q-1080.761-1175.268-1078.333-1176.289Z" transform="translate(88.314 165.563)"/>
    <path id="패스_10" data-name="패스 10" class="cls-2" d="M-909.917-1125.844c5.255,11.673,10.013,23.58,16.646,34.589q3.354,9.716,6.7,19.432l-6.7-19.432C-899.9-1102.264-904.662-1114.171-909.917-1125.844Z" transform="translate(589.41 302.472)"/>
    <path id="패스_11" data-name="패스 11" class="cls-2" d="M-1052.424-1195.126c7.566.364,10.414,5.293,11.666,11.087-1.252-5.794-4.1-10.723-11.662-11.09-1.979-.91-3.978-.6-5.976-.342C-1056.4-1195.728-1054.4-1196.039-1052.424-1195.126Z" transform="translate(186.435 112.778)"/>
    <path id="패스_12" data-name="패스 12" class="cls-2" d="M-1079.662-1163.3c.4,1.9,1.586,2.789,3.6,2.11,1.315-.356,2.633-.687,3.94-1.073-1.307.386-2.625.717-3.937,1.066C-1078.076-1160.513-1079.257-1161.4-1079.662-1163.3Z" transform="translate(128.718 200.81)"/>
    <path id="패스_13" data-name="패스 13" class="cls-2" d="M-1088.911-1185.321c-2.949.52-6.106,1.218-7.324,4.937h0C-1095.02-1184.1-1091.86-1184.8-1088.911-1185.321Z" transform="translate(83.738 141.05)"/>
    <path id="패스_14" data-name="패스 14" class="cls-2" d="M-1015.567-1137.4v0c-6.856,2.362-8.449,8.386-10.043,14.418-2.949,2.964-6.748,4.572-10.421,6.295,3.673-1.723,7.473-3.331,10.425-6.295C-1024.016-1129.017-1022.423-1135.041-1015.567-1137.4Z" transform="translate(247.133 271.101)"/>
    <path id="패스_15" data-name="패스 15" class="cls-2" d="M-1069.187-1164.607c-13,.034-26.006.164-38.987.253h0C-1095.182-1164.443-1082.186-1164.574-1069.187-1164.607Z" transform="translate(51.328 197.268)"/>
    <path id="패스_16" data-name="패스 16" class="cls-2" d="M-1009.422-1172.042c1.392,7.157,4.093,13.961,7.034,20.68h0C-1005.329-1158.081-1008.029-1164.885-1009.422-1172.042Z" transform="translate(319.351 177.09)"/>
    <line id="선_1" data-name="선 1" class="cls-3" transform="translate(-567.306 -1236.852)"/>
    <path id="패스_17" data-name="패스 17" class="cls-4" d="M-872.6-1050.559c-1.441-2.544-2.11-5.746-5.411-6.837-2.953,2.964-6.752,4.572-10.425,6.295-9.582,4.5-12.992,3.532-19.439-4.761-5.181-6.655-10.429-13.266-15.814-19.758-24.372-29.348-51.179-56.491-76.88-84.639a10.419,10.419,0,0,0-8.631-.706c-25.972,7.721-51.963,15.387-77.89,23.253-1,.3-4.3-.635-3.038,2.607.2.516,1.423.639,2.169.948,1.352-.145,2.712-.3,4.067-.446q1.632.034,3.265.074l-1.563,1.006h0c-2.5,3.888-2.351,6.18-.353,7.346a11,11,0,0,0,5.4.988,76.671,76.671,0,0,0,38.15-10.373c6.485-3.711,8.4-1.757,11.2,4.056,6.819,14.147,13.7,28.256,20.787,42.262,11.811,23.346,24.16,46.407,37.646,68.872,0,0,6.247,10.634,6.968,11.759,1.857,2.9,12.03,18.321,18.455,26,8.936,10.678,21.975,17.472,21.975,17.472,28.784,11.837,47.02,5.984,47.02,5.984,22.717-4.543,21.582-7.383,46.106-15.787-7.205-15.008-17.3-28.3-25.341-42.819C-860.25-1028.732-866.43-1039.643-872.6-1050.559Z" transform="translate(99.538 205.512)"/>
    <path id="패스_18" data-name="패스 18" class="cls-4" d="M-1086.835-1154.018h0c-2.5,3.888-2.347,6.18-.349,7.346C-1089.186-1147.838-1089.339-1150.13-1086.835-1154.018Z" transform="translate(104.184 226.007)"/>
    <path id="패스_19" data-name="패스 19" class="cls-4" d="M-1030.314-1073.224h0c-13.486-22.465-25.835-45.526-37.646-68.872C-1056.145-1118.75-1043.8-1095.689-1030.314-1073.224Z" transform="translate(160.488 258.364)"/>
    <path id="패스_20" data-name="패스 20" class="cls-5" d="M-1024.937-1153.628c.954-.03,1.9-.049,2.852-.038a23.19,23.19,0,0,1,8.335,1.386c1.218-3.718,5.136-3,7.591-4.423.858-.5,1.746-.3,2.6-.539,45.125-12.7,90.3-25.519,135.513-37.9.26-.071.531-.1.8-.153-2.5-.613-6.162-.334-8.175-.23-1.686.085-5.9.2-6.563.23-19.948.754-33.122,1.337-53.066,2.08-6.281.122-9.843.487-15.8.742-19.127.821-35.926,2.76-54.388,8.245-13.545,4.019-27.4,7-41.077,10.589q-40.179,10.54-80.316,21.233C-1092.722-1152.068-1058.828-1152.618-1024.937-1153.628Z" transform="translate(1.254 112.945)"/>
    <path id="패스_21" data-name="패스 21" class="cls-6" d="M-1124.815-1164.3h0c-1.319.921-1.731,1.689-.294,3.108C-1126.546-1162.609-1126.134-1163.378-1124.815-1164.3Z" transform="translate(2.922 198.104)"/>
    <path id="패스_22" data-name="패스 22" class="cls-6" d="M-1090.145-1182.979h0a23.191,23.191,0,0,0-8.335-1.386A23.191,23.191,0,0,1-1090.145-1182.979Z" transform="translate(77.648 143.645)"/>
    <path id="패스_23" data-name="패스 23" class="cls-7" d="M-1098.738-1168.553l0,0h0" transform="translate(76.944 186.553)"/>
    <path id="패스_24" data-name="패스 24" class="cls-7" d="M-1108.166-1164.539h-.015" transform="translate(51.316 197.453)"/>
    <path id="패스_25" data-name="패스 25" class="cls-7" d="M-1119.447-1164.112h0" transform="translate(20.73 198.611)"/>
    <path id="패스_26" data-name="패스 26" class="cls-7" d="M-1112.337-1174.464" transform="translate(40.037 170.516)"/>
    <path id="패스_27" data-name="패스 27" class="cls-8" d="M-1125.69-1155.239c14.47-4.684,29.106-8.754,43.859-12.4-14.752,3.643-29.389,7.714-43.859,12.4Z" transform="translate(3.797 189.045)"/>
    <path id="패스_28" data-name="패스 28" class="cls-8" d="M-1125.69-1164.3h0q11.587.345,23.171.694h0Q-1114.1-1163.949-1125.69-1164.3Z" transform="translate(3.797 198.104)"/>
    <path id="패스_29" data-name="패스 29" class="cls-8" d="M-1125.688-1164.3h0Z" transform="translate(3.796 198.103)"/>
    <path id="패스_30" data-name="패스 30" class="cls-9" d="M-972.976-1166.474c-15.836,17.931-31.929,35.644-47.283,53.98,15.354-18.336,31.447-36.048,47.283-53.98Z" transform="translate(289.939 192.201)"/>
    <path id="패스_31" data-name="패스 31" class="cls-10" d="M-988.722-1141.281c9.526,1.538,16.286-4.795,20.836-12.921,1.972-3.521,3.495-7.287,5.218-10.934,2.678.394,2.377,2.815,2.949,4.42,7.759,21.8,22.106,38.054,42.514,48.475,6.466,3.3,7.967,6.644,6.084,13.092-.869,2.968-2.333,6.1-1.014,10.544,3.343-5.118,6.3-9.571,9.192-14.079,3.781-5.9,8.843-9.1,15.826-6.377,6.44,2.507,10.042,11.806,7.413,18.756-4.2,11.108-13.021,16.256-24.294,17.816-2.106.293-4.286.041-8.044.041,6.663,10.24,12.661,19.462,18.663,28.683,2.878-.36,7.81-.178,10.685-.538,1.95-1.33,1.976-.542,4.175-1.289,34.852-5.356,69.256-1.909,103.373,5.641,16.367,3.621,32.561,8.026,48.836,12.075-1.025-5.868-2.273-11.706-3.023-17.608-2.009-15.889-10.7-27.495-23.064-36.85-17.586-10.34-35.54-9.761-54.054-2.455-1.263.494-2.529.988-3.8,1.456-8.917,3.287-18.121,5.453-27.673.784a22.866,22.866,0,0,1-10.425-6.392,33.866,33.866,0,0,1-3.729-4.713,54.832,54.832,0,0,1-3.057-5.27c-6.514-12.65-10.7-26.076-10.574-40.579.037-4.052-.605-8.108-.936-12.156-2.214-6.979-4.42-13.958-8.527-21.211,14.429-.089,23-8.3,30.061-18.667a22.36,22.36,0,0,0,4.123-13.839c-.212-4.152-1.56-7.744-6.57-7.654-4.453.081-5.983,3.116-6.065,7.142-.03,1.594.427,3.306-2.63,5.5-1.422-7.859-.591-15.9-5.489-22.057-1.794-2.774-5.631-6.548-10.615-6.663a18.24,18.24,0,0,0-9.17,2.5,9.249,9.249,0,0,0-7.2-2.671s-.754-3.075-5.452-6.384c-1.623-1.14-7.777-1.56-7.777-1.56-9-.7-17.136,4.58-18.849,14.812a28.373,28.373,0,0,0-.319,4.865c.635,6.221-1.939,6.827-7.543,5.679-11.981-2.455-23.231-.628-32.186,8.754a6.925,6.925,0,0,1-4.773,2.484c-25.125,2.255-36.836,13.5-39.918,38.21a77.765,77.765,0,0,0-.78,10.533,119.769,119.769,0,0,0,3.083,16.917,31.563,31.563,0,0,0,1.883,5.453,10.546,10.546,0,0,0,1.162-3.031C-999.812-1140.082-997.09-1142.634-988.722-1141.281Z" transform="translate(327.754 0)"/>
    <path id="패스_32" data-name="패스 32" class="cls-10" d="M-975.915-1184.4l8.628-1.08-8.628,1.08Z" transform="translate(410.29 140.629)"/>
    <path id="패스_33" data-name="패스 33" class="cls-4" d="M-990.009-1179.819v0c2.225,2.682,2.707,6.047,3.647,9.226-.94-3.179-1.422-6.544-3.647-9.229Z" transform="translate(372.039 155.983)"/>
    <path id="패스_34" data-name="패스 34" class="cls-4" d="M-967.3-1185.185c.91,10.9-4.226,24.064-11.788,32.973,7.562-8.91,12.7-22.072,11.792-32.973h0Z" transform="translate(401.673 141.419)"/>
    <path id="패스_35" data-name="패스 35" class="cls-7" d="M-982.04-1178.093q-51.811,14.5-103.566,29.192c1.081.06,2.169.2,3.246.16,7.146-.282,14.359-.91,18.143,7.3,3.833,8.323,3.654,16.241-1.931,23.755,11.309-2.867,22.626-5.7,33.924-8.613q37.081-9.571,74.155-19.2c10.956-3.135,21.924-6.236,32.869-9.412,9.07-2.625,11.818-8.891,9.649-21.771-1.3-7.7-6.047-11.581-14.255-11.3-12.26.42-24.509,1.01-36.765,1.53C-970.549-1181.48-976.2-1179.726-982.04-1178.093Zm22.2,14.659c1.6-.416,3.918-1.984,4.605,1.059.424,1.876-1.177,3.012-2.789,3.443-19.1,5.1-38.218,10.135-56.917,15.082-2.047-.055-3.974.3-4.446-1.82-.509-2.269,1.426-2.522,2.979-2.934Q-988.126-1156.04-959.842-1163.433Z" transform="translate(112.586 133.795)"/>
    <path id="패스_36" data-name="패스 36" class="cls-11" d="M-948.585-1195.573c-.271.048-.542.082-.8.153-45.214,12.379-90.458,24.65-135.584,37.352-.854.242-1.839.294-2.8.572-3.365.977-4.569,1.315-8.888,4.412,2.38,2.752,6.975,5.6,7.142,8.535.5,8.987,3.387,15.417-1.615,24.947a16.433,16.433,0,0,0,2.3.126,54.559,54.559,0,0,0,11.706-2.236c1.675-.531,5.4-1.556,7.023-2.239,5.664-1.46,8.818-2.919,14.481-4.379q51.783-14.618,103.57-29.192c5.842-1.634,11.491-3.387,15.469-8.357.093-5.367.862-10.834.112-16.081-.126-.85-.271-1.7-.449-2.526C-938.171-1190.281-941.02-1195.209-948.585-1195.573Zm-31.343,31.5c-20.2,5.6-40.412,11.164-59.855,16.523-2.135.123-3.662.583-4.074-1.341-.52-2.433.958-3.421,3.015-3.993,7.863-2.2,15.711-4.475,23.589-6.637q17.721-4.869,35.484-9.619c1.482-.394,3.328-1.4,4.227.736C-976.608-1166.188-977.777-1164.668-979.928-1164.07Z" transform="translate(82.596 113.226)"/>
    <path id="패스_37" data-name="패스 37" class="cls-11" d="M-1093.55-1181.835c4.015,7.84,3.387,15.417-1.619,24.947h0C-1090.163-1166.418-1089.535-1173.995-1093.55-1181.835Z" transform="translate(86.632 150.511)"/>
    <path id="패스_38" data-name="패스 38" class="cls-10" d="M-993.545-1109.526c4.412-4.022,8.832-8.037,13.314-11.966q4.73-4.145,9.6-8.112c10.566-8.658,21.668-16.609,34.035-22.882-1.341-10.492-6.132-19.971-8.791-30.08-.78-2.986-2.712-3.524-5.434-3.339-7.937.535-15.484-1.367-22.89-3.985-5.534,9.939-14.622,16.635-22.4,24.524-9.456,9.59-14.236,20.988-13.5,34.485a52.98,52.98,0,0,0,.917,7.28c1.393,7.157,4.093,13.961,7.034,20.68C-998.136-1104.107-996.119-1107.179-993.545-1109.526Z" transform="translate(318.628 128.65)"/>
    <path id="패스_39" data-name="패스 39" class="cls-10" d="M-999.173-1156.937c10.566-8.658,21.668-16.609,34.035-22.879v0C-977.505-1173.546-988.607-1165.595-999.173-1156.937Z" transform="translate(347.167 155.983)"/>
    <path id="패스_40" data-name="패스 40" class="cls-12" d="M-1030.521-1137.427v.089h0Z" transform="translate(262.088 271.036)"/>
    <path id="패스_41" data-name="패스 41" class="cls-12" d="M-1030.52-1137.351l0-.152Z" transform="translate(262.08 270.829)"/>
    <path id="패스_42" data-name="패스 42" class="cls-4" d="M-914.215-1155.406c1.879,7.5,3.072,15.19,5.75,22.474-2.678-7.283-3.87-14.975-5.75-22.474Z" transform="translate(577.745 222.24)"/>
    <path id="패스_43" data-name="패스 43" class="cls-4" d="M-915.347-1175.218h0v0c6.009,14.745,9.865,29.753,9.337,45.282C-905.482-1145.461-909.338-1160.469-915.347-1175.218Z" transform="translate(574.673 168.47)"/>
    <path id="패스_44" data-name="패스 44" class="cls-10" d="M-888.192-1139.978c-3.031-1.17-5.957-2.737-8.958-4.015h0C-894.15-1142.711-891.223-1141.148-888.192-1139.978Z" transform="translate(624.049 253.215)"/>
    <path id="패스_45" data-name="패스 45" class="cls-6" d="M-1107.183-1174.389h0l-.571-.444.573.446Z" transform="translate(52.472 169.509)"/>
    <path id="패스_46" data-name="패스 46" class="cls-1" d="M-1101.644-1162.769q-11.582-.345-23.171-.694c-1.319.921-1.731,1.689-.294,3.108,8.558,8.449,10.659,19.109,7.9,30.117-1.7,6.8-.658,6.436,5.709,6.436,34.083,0,68.159-1.051,102.236-1.5a13.7,13.7,0,0,0,7.03-1.682,24.644,24.644,0,0,0,4.1-9.623c3.124-16.72-6-28.052-22.647-28-13,.034-58.686,1.4-71.681,1.489Z" transform="translate(2.922 197.268)"/>
    <path id="패스_47" data-name="패스 47" class="cls-13" d="M-1072.935-1174.73c-11.532.665-23.124-.409-34.667.13h0C-1096.059-1175.139-1084.467-1174.065-1072.935-1174.73Z" transform="translate(52.888 169.72)"/>
    <path id="패스_48" data-name="패스 48" class="cls-13" d="M-1092.866-1174.992c-.766-.041-1.534-.081-2.3-.126h0v0Z" transform="translate(86.632 168.741)"/>
    <path id="패스_49" data-name="패스 49" class="cls-1" d="M-1054.714-1148.522c11.543-.539,23.135.535,34.667-.13a88.46,88.46,0,0,0,11.51-1.367c5.006-9.53,4.119-17.5,1.612-25.95-.85-2.86-1.909-5.181-5.571-7.008h0a23.19,23.19,0,0,0-8.335-1.386c-.947-.011-1.9.008-2.852.037-33.891,1.01-67.785,1.56-101.69,1.226-1.887.334-2.192,1.277-1.04,2.752,7.736,9.928,9.965,20.761,4.951,32.758h49.162Z" transform="translate(0 143.643)"/>
    <path id="패스_50" data-name="패스 50" class="cls-3" d="M-921.283-1177.331c7.116,3.235,13.82,7.707,22.047,7.851v0C-907.463-1169.624-914.167-1174.1-921.283-1177.331Z" transform="translate(558.563 162.735)"/>
    <path id="패스_51" data-name="패스 51" class="cls-2" d="M-885.152-1143.993a81.043,81.043,0,0,1-16.423,3.361A63.176,63.176,0,0,0-885.152-1143.993Z" transform="translate(612.048 253.215)"/>
    <path id="패스_52" data-name="패스 52" class="cls-2" d="M-913.39-1147.315a79.2,79.2,0,0,0,2.069-15.71A81.531,81.531,0,0,1-913.39-1147.315Z" transform="translate(579.984 201.562)"/>
    <path id="패스_53" data-name="패스 53" class="cls-10" d="M-823.159-1126.683a28.835,28.835,0,0,1-3.075-1.007c-3.031-1.17-5.957-2.733-8.962-4.015a63.185,63.185,0,0,1-16.423,3.361c-15.6.918-29.01-5.493-39.952-20.178-11.9,17.538-6.106,14.578-23.253,10.5-1.8.323-4.033-.676-5.159,1.69,12.249,19.305,21.47,40.2,31.881,60.483,1.95,3.8,3.755,7.662,5.5,11.554,5.255,11.673,10.013,23.58,16.65,34.589,2.451-.16,4.9-.264,7.343-.49,22.882-2.124,42.979-9.682,56.992-29.166C-786.119-1080.9-792.5-1118.6-823.159-1126.683Z" transform="translate(562.091 240.926)"/>
    <path id="패스_54" data-name="패스 54" class="cls-14" d="M-553.57-913.274c-2.232-6.477-2.807-7.219-5.043-13.7-6.633-11.008-11.391-22.916-16.646-34.589-1.749-3.892-3.555-7.755-5.5-11.554-10.411-20.279-19.632-41.178-31.881-60.483,1.125-2.366,3.361-1.367,5.159-1.69,17.148,4.082,11.354,7.042,23.253-10.5a18.922,18.922,0,0,1-1.24-3.1c-2.678-7.283-4.431-13.307-4.431-20.349a70.287,70.287,0,0,1,1.746-14.712,81.519,81.519,0,0,0,2.069-15.71,86.128,86.128,0,0,0-.394-11.554c-1.14-11.462-4.435-22.667-8.943-33.728-9.066-2.714-14.93-4.616-22.047-7.851-1.018-.46-2.043-.9-3.082-1.292-10.871-4.134-20.843-7.733-32.754-11.989-16.275-4.048-32.468-8.453-48.836-12.074-34.117-7.551-68.52-11-103.373-5.641a37.317,37.317,0,0,0-6.232.747l-8.628,1.08c.91,10.9-4.231,24.063-11.792,32.973a31.247,31.247,0,0,1-11.48,8.906q-18.256,7.489-24.988-11.368c-.16-.446-.3-.9-.438-1.352-.94-3.179-1.422-6.544-3.647-9.226-12.368,6.27-23.469,14.221-34.035,22.879-3.239,2.655-6.444,5.348-9.6,8.112-4.483,3.929-8.9,7.944-13.314,11.966-2.574,2.347-4.591,5.419-8.119,6.6h0c-15.836,17.931-31.929,35.644-47.283,53.98-9.215,11-18.162,22.224-26.634,33.857-4.479,6.147-9.221,12.063-11.5,19.473l.011.29,0,.152.007.13v.093c-6.856,2.358-8.449,8.382-10.039,14.414,3.3,1.091,3.97,4.293,5.411,6.837,6.169,10.916,12.349,21.828,18.421,32.8,8.037,14.518,18.136,27.81,25.341,42.819,4.331,3.56,5.171,6.08,14.58-.044,9.578-7.822,15.93-13.248,24.417-18.915,16.739-11.176,31.855-24.3,47.451-36.877,3.368-2.719,6.93-5.2,10.4-7.781l4.821,22.715s4.688,22.9,7.589,35.277h7.171C-867.722-913.106-659.884-913.319-553.57-913.274Z" transform="translate(254.752 138.187)"/>
    <path id="패스_55" data-name="패스 55" class="cls-15" d="M-911.427-1146.257q-.674-1.538-1.24-3.1A18.922,18.922,0,0,0-911.427-1146.257Z" transform="translate(581.947 238.663)"/>
    <path id="패스_56" data-name="패스 56" class="cls-3" d="M-961.067-1193.9a33.6,33.6,0,0,1-3.729-4.713A33.86,33.86,0,0,0-961.067-1193.9Z" transform="translate(440.467 104.962)"/>
    <path id="패스_57" data-name="패스 57" class="cls-3" d="M-962.562-1194.767a54.832,54.832,0,0,1-3.057-5.27A54.832,54.832,0,0,0-962.562-1194.767Z" transform="translate(438.233 101.111)"/>
    <path id="패스_58" data-name="패스 58" class="cls-4" d="M-888.664-1161.789c-6.983-2.719-12.045.479-15.826,6.377-2.89,4.509-5.85,8.961-9.192,14.079-1.318-4.442.145-7.576,1.014-10.544,1.883-6.447.383-9.79-6.084-13.091-20.409-10.421-34.756-26.671-42.514-48.475-.572-1.6-.271-4.026-2.949-4.42-1.723,3.647-3.246,7.413-5.218,10.934-4.55,8.126-11.309,14.459-20.836,12.921-8.368-1.352-11.231.632-12.238,7.826a17.162,17.162,0,0,1-.4,3.933c-.821,6.132-1.835,12.245-2.422,18.4-1.924,20.326,2.243,38.176,20.943,49.879,7.406,2.618,14.953,4.52,22.89,3.985,2.722-.185,4.654.353,5.434,3.339,2.659,10.109,7.45,19.588,8.791,30.08h0a67.808,67.808,0,0,1,3.647,9.229c.134.457.278.906.438,1.352q6.747,18.83,24.988,11.368a31.247,31.247,0,0,0,11.48-8.906c7.562-8.91,12.7-22.072,11.788-32.973h0c-6-9.221-12-18.443-18.663-28.683,3.759,0,5.939.253,8.044-.041,11.272-1.56,20.089-6.708,24.294-17.816C-878.621-1149.983-882.224-1159.282-888.664-1161.789Z" transform="translate(329.301 52.727)"/>
    <path id="패스_59" data-name="패스 59" class="cls-5" d="M-1067.716-1163.051c.471,2.121,2.4,1.765,4.446,1.82,18.7-4.947,37.816-9.979,56.917-15.082,1.612-.431,3.213-1.567,2.789-3.443-.687-3.042-3-1.475-4.605-1.059q-28.3,7.343-56.568,14.83C-1066.29-1165.573-1068.225-1165.32-1067.716-1163.051Z" transform="translate(160.913 151.178)"/>
    <path id="패스_60" data-name="패스 60" class="cls-7" d="M-1020.277-1188.027q-17.755,4.769-35.483,9.619c-7.878,2.162-15.725,4.434-23.589,6.637-2.057.572-3.535,1.56-3.015,3.993.412,1.924,1.939,1.463,4.074,1.341,19.443-5.359,39.654-10.923,59.855-16.523,2.151-.6,3.32-2.117,2.385-4.331C-1016.949-1189.431-1018.795-1188.421-1020.277-1188.027Z" transform="translate(121.102 132.116)"/>
    <path id="패스_61" data-name="패스 61" class="cls-8" d="M-1060.661-1131.623c12.98-.086,26-.765,39.005-.8,16.649-.048,25.771,11.284,22.647,28a24.648,24.648,0,0,1-4.1,9.623l11.759-2.489c25.928-7.867,51.918-15.532,77.891-23.253l13.924-3.836c12.62-3.9,25.129-8.4,38.006-11.15,15.034-3.213,21-11.016,17.251-25.931a59.437,59.437,0,0,0-6.24-15.012c-24.717,6.4-48.2,12.5-72.918,18.882-11.3,2.915-22.615,5.746-33.924,8.613-5.7,1.887-9.059,1.367-13.615,1.43-18.207.242-36.409.319-54.615.457h0l-41.456-.1q-7.409,1.693-14.785,3.514c-14.752,3.643-29.389,7.714-43.859,12.4h0q11.587.345,23.171.694Z" transform="translate(3.797 165.083)"/>
    <path id="패스_62" data-name="패스 62" d="M-986.155-1199.777c-.542,3.2-2.585,5.512-4.561,5.173s-3.138-3.194-2.6-6.388,2.592-5.511,4.568-5.173S-985.605-1202.968-986.155-1199.777Z" transform="translate(362.713 84.39)"/>
    <path id="패스_63" data-name="패스 63" d="M-994.688-1201.338c-.542,3.194-2.581,5.5-4.561,5.169s-3.135-3.194-2.6-6.388,2.592-5.508,4.564-5.174S-994.138-1204.532-994.688-1201.338Z" transform="translate(339.558 80.143)"/>
    <path id="패스_64" data-name="패스 64" class="cls-16" d="M-987.661-1194.907a8.773,8.773,0,0,1-8.773,8.773,8.775,8.775,0,0,1-8.772-8.773,8.772,8.772,0,0,1,8.772-8.772A8.77,8.77,0,0,1-987.661-1194.907Z" transform="translate(330.793 91.226)"/>
    <path id="패스_65" data-name="패스 65" class="cls-16" d="M-982.2-1201.068a8.781,8.781,0,0,1,5.359,8.085,8.77,8.77,0,0,1-8.769,8.772,8.77,8.77,0,0,1-8.773-8.772,8.775,8.775,0,0,1,8.773-8.773,8.756,8.756,0,0,1,3.409.688" transform="translate(360.167 96.448)"/>
    <g id="그룹_14" data-name="그룹 14" transform="translate(-647.399 -1098.712)">
      <path id="패스_66" data-name="패스 66" class="cls-17" d="M-991.531-1188.194a10.015,10.015,0,0,1-5.972-2.433,1.3,1.3,0,0,1-.1-1.834,1.306,1.306,0,0,1,1.835-.1c.026.022,2.518,2.21,5.118,1.679.375-.056,7-1.014,7.729-7.93a1.3,1.3,0,0,1,1.43-1.155,1.3,1.3,0,0,1,1.159,1.43,11.482,11.482,0,0,1-9.891,10.218A6.4,6.4,0,0,1-991.531-1188.194Z" transform="translate(997.933 1199.979)"/>
    </g>
    <g id="그룹_15" data-name="그룹 15" transform="translate(-662.67 -1139.921)">
      <path id="패스_67" data-name="패스 67" d="M-1000.743-1206.37a1.3,1.3,0,0,1-.969-.435,1.3,1.3,0,0,1,.1-1.834,10.9,10.9,0,0,1,11.777-1.274,1.3,1.3,0,0,1,.628,1.727,1.3,1.3,0,0,1-1.731.627,8.4,8.4,0,0,0-8.94.855A1.276,1.276,0,0,1-1000.743-1206.37Z" transform="translate(1002.045 1211.075)"/>
    </g>
    <g id="그룹_16" data-name="그룹 16" transform="translate(-631.67 -1136.236)">
      <path id="패스_68" data-name="패스 68" d="M-982.416-1203.581a1.3,1.3,0,0,1-.877-.338c-4.773-4.364-8.769-3.514-8.813-3.5a1.319,1.319,0,0,1-1.56-.974,1.306,1.306,0,0,1,.977-1.56c.223-.045,5.378-1.163,11.15,4.115a1.3,1.3,0,0,1,.082,1.838A1.3,1.3,0,0,1-982.416-1203.581Z" transform="translate(993.698 1210.083)"/>
    </g>
    <g id="그룹_17" data-name="그룹 17" transform="translate(-654.064 -1123.954)">
      <path id="패스_69" data-name="패스 69" class="cls-18" d="M-991.188-1182.391a1.156,1.156,0,0,1-.193-.015c-2.741-.416-7.451-1.445-8.2-3.688-1.17-3.487,5.252-16.182,7.246-19.985a1.3,1.3,0,0,1,1.753-.55,1.3,1.3,0,0,1,.549,1.757c-3.844,7.327-7.643,16.278-7.079,17.953.371.569,3.3,1.516,6.121,1.942a1.3,1.3,0,0,1,1.092,1.478A1.3,1.3,0,0,1-991.188-1182.391Z" transform="translate(999.727 1206.776)"/>
    </g>
    <path id="패스_70" data-name="패스 70" class="cls-19" d="M-1078.531-1149.786c.486,2.117,2.414,1.745,4.456,1.786,18.667-5.077,37.75-10.247,56.81-15.487,1.612-.439,3.205-1.586,2.767-3.458-.706-3.038-3.016-1.456-4.613-1.029q-28.251,7.549-56.461,15.231C-1077.124-1152.319-1079.055-1152.052-1078.531-1149.786Z" transform="translate(131.55 185.98)"/>
    <g id="그룹_18" data-name="그룹 18" transform="translate(-766.574 -861.711)">
      <path id="패스_71" data-name="패스 71" class="cls-1" d="M-982.517-1055.822a1.847,1.847,0,0,1-1.719-1.166c-16.743-41.75-45.066-75.789-45.352-76.13a1.859,1.859,0,0,1,.23-2.615,1.86,1.86,0,0,1,2.619.23c.286.342,28.988,34.838,45.946,77.133a1.853,1.853,0,0,1-1.029,2.414A1.841,1.841,0,0,1-982.517-1055.822Z" transform="translate(1030.021 1136.167)"/>
    </g>
    <g id="그룹_19" data-name="그룹 19" transform="translate(-625.163 -1039.87)">
      <path id="패스_72" data-name="패스 72" class="cls-1" d="M-965.771-1129.183a22.042,22.042,0,0,1-9.716-2.181c-12.7-6.143-16.275-22.934-16.42-23.643a1.856,1.856,0,0,1,1.444-2.192,1.84,1.84,0,0,1,2.191,1.442c.034.159,3.373,15.729,14.414,21.054,6.154,2.968,13.675,2.247,22.355-2.132,27.915-14.094,29.193-45.188,29.2-45.5a1.886,1.886,0,0,1,1.917-1.8,1.859,1.859,0,0,1,1.8,1.916c-.011.334-1.378,33.623-31.239,48.7C-955.55-1130.631-960.883-1129.183-965.771-1129.183Z" transform="translate(991.945 1184.136)"/>
    </g>
    <g id="그룹_20" data-name="그룹 20" transform="translate(-357.282 -959.824)">
      <path id="패스_73" data-name="패스 73" class="cls-1" d="M-917.962-1106.024a1.846,1.846,0,0,1-1.222-.457,1.858,1.858,0,0,1-.175-2.622c6.247-7.138,26.581-51.937,26.789-52.39a1.859,1.859,0,0,1,2.459-.925,1.863,1.863,0,0,1,.925,2.459c-.847,1.864-20.776,45.753-27.376,53.3A1.861,1.861,0,0,1-917.962-1106.024Z" transform="translate(919.819 1162.584)"/>
    </g>
    <path id="패스_74" data-name="패스 74" class="cls-4" d="M-849.714-962.709A70.283,70.283,0,0,0-851.46-948c0,7.042,1.753,13.065,4.431,20.349q.568,1.561,1.24,3.1c10.942,14.685,24.353,21.1,39.952,20.178a81.052,81.052,0,0,0,16.424-3.361h0c11.866-6.362,20.257-15,25.352-25.961q1.1-2.351,1.983-4.843a67.472,67.472,0,0,0,3.332-14.31,80.1,80.1,0,0,0,.564-12.1c-.319-11.981-2.183-25.014-6.778-36.111-13.6-32.825-74.626-119.514-74.626-119.514-8.94-11.342-16.787-20.49-24.683-31.127-2.633-3.543-5.293-7.068-8.052-10.514-1.159-1.445-2.422-3.3-2.514-5.029-.568-10.6-6.823-18.719-11.469-27.577-5.021-9.575-11.506-18.563-12.6-29.816-.253-2.618.185-6.187-3.48-6.392-3.978-.216-6.589,2.521-7.354,6.351-.758,3.778-.085,7.54,1.044,11.261,1.1,3.621,1.846,7.357,2.634,11.068,1.185,5.608-.5,8.372-6.7,6.625-5.415-1.522-12.145-3.227-16.063.7-.947.951-.216,3.51-1.271,3.751-4.078.936-5.894,1.828-6.042,7.536-.067,2.552,2.507,3.926,2.507,3.926s-2.8-.286-3.087,2.206c-.765,6.518,1.954,6.645,3.781,11.049.323.784.509.078.323.784-.576,2.169.761,5.07.761,5.07,3.131,5.571,9.073,8.891,14.886,10.633a33.646,33.646,0,0,0,6.058,1.233c3.966.424,6.24,3.581,7.822,7.462,9.318,22.875,20.32,45.111,28.26,68.494,2.347,6.915,4.683,13.92,7.135,19.915,4.256,10.4,7.662,18.629,10.711,29.263h0c4.509,11.064,7.8,22.269,8.943,33.731a86.118,86.118,0,0,1,.394,11.554A79.2,79.2,0,0,1-849.714-962.709Z" transform="translate(516.309 16.956)"/>
  </g>
</svg>
