<svg xmlns="http://www.w3.org/2000/svg" width="854.554" height="413.656" viewBox="0 0 854.554 413.656"><defs><style>.a,.b{fill:#fff;}.a,.e{font-size:124px;font-family:S-CoreDream-9Black, 'S-Core Dream 9';font-weight:800;letter-spacing:-0.074em;}.c,.d{fill:#0268d7;}.c{font-size:175px;font-family:S-CoreDream-1Thin, 'S-Core Dream 1';font-weight:200;letter-spacing:-0.063em;}.e{fill:none;stroke:#0268d7;stroke-width:2px;}</style></defs><g transform="translate(9213 1477)"><text class="a" transform="translate(-9070 -1339)"><tspan x="0" y="0">독자가</tspan></text><g transform="translate(-8704.812 -1454.169)"><path class="b" d="M525.658,1108.029l6.772-55.146h46.354l4.955-40.36h62.339l-4.955,40.36h47.154l-6.771,55.146H634.352c-6.078,52.751,6.744,68.737,40.482,77.128l-7.018,57.145c-31.975-3.2-60.579-17.582-75.512-39.162-20.331,22.378-54.409,39.563-86.869,43.558l7.016-57.146c36.694-9.191,52.488-27.174,59.562-81.523Zm-3.626,211.8,7.066-57.545H822.409l-17.32,141.065H735.557l10.255-83.52ZM851.8,1022.911,824.224,1247.5H762.685l10.3-83.92H751.011l-10.059,81.92H681.809l27.037-220.187h59.142l-9.861,80.322H780.1l10.156-82.72Z" transform="translate(-505.434 -1012.522)"/></g><g transform="translate(-9746 -1737)"><text class="c" transform="translate(533 576)"><tspan x="0" y="0">선택한</tspan></text><path class="d" d="M525.658,1108.029l6.772-55.146h46.354l4.955-40.36h62.339l-4.955,40.36h47.154l-6.771,55.146H634.352c-6.078,52.751,6.744,68.737,40.482,77.128l-7.018,57.145c-31.975-3.2-60.579-17.582-75.512-39.162-20.331,22.378-54.409,39.563-86.869,43.558l7.016-57.146c36.694-9.191,52.488-27.174,59.562-81.523Zm-3.626,211.8,7.066-57.545H822.409l-17.32,141.065H735.557l10.255-83.52ZM851.8,1022.911,824.224,1247.5H762.685l10.3-83.92H751.011l-10.059,81.92H681.809l27.037-220.187h59.142l-9.861,80.322H780.1l10.156-82.72Z" transform="translate(519.756 -729.691)"/><text class="e" transform="translate(681 398)"><tspan x="0" y="0">독자가</tspan></text></g></g></svg>