<svg xmlns="http://www.w3.org/2000/svg" width="386.835" height="270.074" viewBox="0 0 386.835 270.074">
  <defs>
    <style>
      .cls-1 {
        fill: #fb6a5c;
      }

      .cls-2 {
        fill: #e25649;
      }

      .cls-3 {
        fill: #fff;
      }

      .cls-4 {
        fill: #fbba58;
      }

      .cls-5 {
        fill: #ff993e;
      }
    </style>
  </defs>
  <g id="그룹_47" data-name="그룹 47" transform="translate(1216.855 1007.111)">
    <g id="그룹_46" data-name="그룹 46" transform="translate(-1216.855 -1007.111)">
      <path id="패스_88" data-name="패스 88" class="cls-1" d="M-885.887-816.5C-912.558-838.669-939-861.11-965.919-882.97c-14.553-11.823-27.95-24.954-45.606-33.031-53.383-24.423-106.2-50.063-159.441-74.8-11.2-5.205-23.139-11.292-37.064-16.243,11.6,12.824,27.888,25.491,40.629,37.069,28.345,25.744,56.93,51.218,85.416,76.8q47.359,21.068,94.709,42.12c25.836,11.449,51.343,23.758,77.7,33.837,14.407,5.509,27.028,15.388,42.8,17.381Z" transform="translate(1244.69 1007.314)"/>
      <path id="패스_89" data-name="패스 89" class="cls-2" d="M-975.513-826.936c12.753,5.6,18.822,4.1,28.548-5.808,8.865-9.032,15.649-19.168,18.711-31.784a30.994,30.994,0,0,0,.939-6.668c.112-6.265-2.405-11.316-8.919-15.105l-42.8-17.381c-26.359-10.078-51.866-22.387-77.7-33.836q-47.377-21.006-94.7-42.116c5.832,24.1-10.527,51.908-34.572,58.758q20.5,9.9,41,19.808Zm-28.831-41.26c-29.4-13.2-58.928-26.13-88.419-39.137-3.12-1.384-5.227-2.937-3.183-6.892,1.845-3.564,3.83-4.956,7.91-3.09q44.4,20.277,88.922,40.3c1.666.756,3.5,1.321,3.1,3.826C-997.751-869.879-998.408-865.534-1004.344-868.2Z" transform="translate(1314.147 1093.776)"/>
      <path id="패스_90" data-name="패스 90" class="cls-3" d="M-1054.151-892.973c-28.486-25.586-57.076-51.056-85.416-76.8-12.745-11.578-26.263-22.333-37.862-35.154-5.5-4.9-5.891-.6-6.576,3.569-3.224,19.662-11.366,36.736-28.585,47.645-6.306,4-4.831,5.654-.652,9.385L-1093.571-836.3c1.234,1.118,3.215,1.408,4.852,2.086,24.041-6.846,40.4-34.655,34.568-58.758Z" transform="translate(1216.855 1007.11)"/>
      <path id="패스_91" data-name="패스 91" class="cls-4" d="M-1066.884-923.708q-44.48-20.109-88.922-40.3c-4.08-1.865-6.065-.474-7.91,3.091-2.044,3.955.063,5.509,3.183,6.892,29.491,13.007,59.015,25.939,88.419,39.137,5.936,2.663,6.593-1.683,8.333-5C-1063.382-922.387-1065.218-922.952-1066.884-923.708Z" transform="translate(1381.917 1140.464)"/>
    </g>
    <path id="패스_92" data-name="패스 92" class="cls-5" d="M-1152.318-968.439c10.643-4.221,38.876,3.236,54.438,9l-24-17.552c-12.754-2.684-26.758-4.092-35.943-.449-5.334,2.11-8.84,5.716-10.112,10.29-.175.557-4.034,13.709,17.128,23.85,9.023,5.205,23.368,15.961,24.094,23.081a4.077,4.077,0,0,1-1.84,3.888c-2.709,2.177-12.608,3.569-48.43-11.541l-36.969-14.5L-1197-929.655l-13.073-.041,25.491,9.954,1.815.765c17.082,7.2,35.237,13.875,48.734,13.875,5.746,0,10.656-1.209,14.27-4.109,4.041-3.236,5.932-7.332,5.471-11.835-1.454-14.129-26.637-28.91-29.5-30.551l-.445-.233c-13.032-6.169-11.64-12.712-11.573-12.986A5.17,5.17,0,0,1-1152.318-968.439Z" transform="translate(9.161 86.665)"/>
  </g>
</svg>
